<svg xmlns="http://www.w3.org/2000/svg" viewBox="0 0 64.8 64.8"><defs><style>.cls-1{fill:#629d35;}</style></defs><title>Step3Icon</title><g id="White_Icon" data-name="White Icon"><path class="cls-1" d="M32.4,0A32.4,32.4,0,1,0,64.8,32.4,32.4,32.4,0,0,0,32.4,0Zm0,63A30.6,30.6,0,1,1,63,32.4,30.6,30.6,0,0,1,32.4,63Z"/><path class="cls-1" d="M41.4,24.1a6.7,6.7,0,0,1-1.6,4.6,8.4,8.4,0,0,1-4.6,2.6h0a9.1,9.1,0,0,1,5.2,2.1A5.9,5.9,0,0,1,42.2,38a7.6,7.6,0,0,1-3,6.4q-3,2.3-8.5,2.3a20.7,20.7,0,0,1-8.2-1.5V40a18.6,18.6,0,0,0,3.7,1.4,15.4,15.4,0,0,0,3.9.5,7.7,7.7,0,0,0,4.4-1,3.7,3.7,0,0,0,1.4-3.3,2.9,2.9,0,0,0-1.6-2.9,12.1,12.1,0,0,0-5.2-.8H26.9V29.3h2.2a10.3,10.3,0,0,0,4.9-.9,3.1,3.1,0,0,0,1.5-3q0-3.2-4.1-3.2a9.3,9.3,0,0,0-2.9.5,14,14,0,0,0-3.2,1.6l-2.8-4.2a15.5,15.5,0,0,1,9.3-2.8,12,12,0,0,1,7,1.8A5.8,5.8,0,0,1,41.4,24.1Z"/></g></svg>