<svg xmlns="http://www.w3.org/2000/svg" viewBox="0 0 64.8 64.8"><defs><style>.cls-1{fill:#629d35;}</style></defs><title>Step2Icon</title><g id="White_Icon" data-name="White Icon"><path class="cls-1" d="M32.4,0A32.4,32.4,0,1,0,64.8,32.4,32.4,32.4,0,0,0,32.4,0Zm0,63A30.6,30.6,0,1,1,63,32.4,30.6,30.6,0,0,1,32.4,63Z"/><path class="cls-1" d="M42.5,46.3h-20V42.1l7.2-7.2q3.2-3.3,4.2-4.5A10,10,0,0,0,35.3,28a5.9,5.9,0,0,0,.4-2.2,3.2,3.2,0,0,0-.9-2.6,3.7,3.7,0,0,0-2.5-.8,7.3,7.3,0,0,0-3.2.8,16.6,16.6,0,0,0-3.3,2.2l-3.3-3.9A21.4,21.4,0,0,1,26,18.9a12.8,12.8,0,0,1,3-1.1,15.5,15.5,0,0,1,3.7-.4,10.9,10.9,0,0,1,4.7,1A7.5,7.5,0,0,1,40.6,21a7.3,7.3,0,0,1,1.1,4,9.9,9.9,0,0,1-.7,3.7,14.2,14.2,0,0,1-2.1,3.5,52.5,52.5,0,0,1-5.1,5.2L30.1,41v.3H42.5Z"/></g></svg>